<svg xmlns="http://www.w3.org/2000/svg" width="250" height="200" viewBox="0 0 250 200"><defs><style>.a{fill:#f3f7ff;}.b{fill:#fff;}.c{fill:#e8f0fe;}.d,.e,.f{fill:none;stroke-linejoin:round;stroke-miterlimit:10;}.e{stroke:#75a4fe;}.e,.f{stroke-linecap:round;stroke-width:2.5px;}.f{stroke:#a4c3fe;}.g,.h{stroke:none;}.h{fill:#75a4fe;}</style></defs><path class="a" d="M46,70a7,7,0,1,1,0-14H7A7,7,0,1,1,7,42H47a7,7,0,0,0,0-14H22a7,7,0,0,1,0-14H62A7,7,0,1,1,62,0h98a7,7,0,0,1,0,14H120a7,7,0,1,1,0,14h22a7,7,0,0,1,0,14H131.826C126.951,42,123,45.134,123,49s6,7,6,7a7,7,0,0,1,0,14ZM153,35a7,7,0,1,1,7,7A7,7,0,0,1,153,35Z" transform="translate(47 65)"/><path class="b" d="M29.119,0A12,12,0,1,0,52.881,0H82V26.693a3,3,0,0,1-3,3H3a3,3,0,0,1-3-3V0Z" transform="translate(89 113.307)"/><path class="b" d="M54,31a13,13,0,0,1-26,0q0-.349.018-.693H0L9.56,2.039A3,3,0,0,1,12.4,0H69.6A3,3,0,0,1,72.44,2.039L82,30.307H53.982Q54,30.651,54,31Z" transform="translate(89 82)"/><path class="c" d="M43.1,22.955A11.443,11.443,0,0,1,32,34,11.443,11.443,0,0,1,20.9,22.955c0-.18.005-1.358.016-1.536H0L8.161,1.575A2.554,2.554,0,0,1,10.587,0H53.413a2.554,2.554,0,0,1,2.426,1.575L64,21.419H43.082C43.092,21.6,43.1,22.775,43.1,22.955Z" transform="translate(98 91)"/><g class="d" transform="translate(89 82)"><path class="g" d="M9.56,2.039A3,3,0,0,1,12.4,0H69.6A3,3,0,0,1,72.44,2.039L82,30.307V57a3,3,0,0,1-3,3H3a3,3,0,0,1-3-3V30.307Z"/><path class="h" d="M 12.40229797363281 2.5 C 12.18773651123047 2.5 11.99739837646484 2.636566162109375 11.92864990234375 2.839801788330078 L 2.5 30.71793365478516 L 2.5 57 C 2.5 57.27569961547852 2.724296569824219 57.5 3 57.5 L 79 57.5 C 79.27570343017578 57.5 79.5 57.27569961547852 79.5 57 L 79.5 30.71793365478516 L 70.07135009765625 2.839832305908203 C 70.00260162353516 2.636566162109375 69.81226348876953 2.5 69.59770202636719 2.5 L 12.40229797363281 2.5 M 12.40229797363281 0 L 69.59770202636719 0 C 70.88414764404297 0 72.02739715576172 0.8202171325683594 72.43956756591797 2.038848876953125 L 82 30.30663299560547 L 82 57 C 82 58.6568489074707 80.65685272216797 60 79 60 L 3 60 C 1.343147277832031 60 0 58.6568489074707 0 57 L 0 30.30663299560547 L 9.560432434082031 2.038848876953125 C 9.972602844238281 0.8202171325683594 11.11585235595703 0 12.40229797363281 0 Z"/></g><path class="e" d="M14.153,14a12.339,12.339,0,0,1-8.68-3.515A11.788,11.788,0,0,1,1.876,2c0-.7,0-2-1.876-2H28.213c-1.785.044-1.785,1.317-1.785,2a11.788,11.788,0,0,1-3.6,8.486A12.339,12.339,0,0,1,14.153,14Z" transform="translate(115.744 111.999)"/><path class="f" d="M52.1,4.3,41,16.756ZM26.1,0V0ZM0,4.3,11.1,16.756Z" transform="translate(103 55)"/></svg>