<svg xmlns="http://www.w3.org/2000/svg" width="144.206" height="122.453" viewBox="0 0 144.206 122.453"><defs><style>.a,.b{fill:rgba(255,255,255,0.11);}.a{fill-rule:evenodd;}</style></defs><g transform="translate(-0.589 -0.179)"><g transform="translate(0.589 0.179)"><g transform="translate(0)"><path class="a" d="M1443.589,409.107a3.152,3.152,0,1,0-3.131,3.515A3.339,3.339,0,0,0,1443.589,409.107Zm-3.131-7.732c3.8,0,6.888,3.462,6.888,7.732s-3.083,7.732-6.888,7.732-6.889-3.462-6.889-7.732S1436.653,401.375,1440.459,401.375Z" transform="translate(-1303.141 -360.397)"/><path class="a" d="M1489.066,460.4a2.12,2.12,0,1,1,1.876-2.106A2,2,0,0,1,1489.066,460.4Z" transform="translate(-1351.883 -409.615)"/><path class="a" d="M243.348,1160.256a2,2,0,0,1,1.876-2.106h11.258a2.12,2.12,0,0,1,0,4.212H245.224A2,2,0,0,1,243.348,1160.256Z" transform="translate(-221.208 -1039.91)"/><path class="a" d="M187.125,595.944c0,4.271-3.08,7.732-6.88,7.732H167.737c-3.8,0-6.88-3.462-6.88-7.732s3.08-7.732,6.88-7.732h12.509C184.045,588.212,187.125,591.674,187.125,595.944Zm-6.88,3.515a3.539,3.539,0,0,0,0-7.029H167.737a3.539,3.539,0,0,0,0,7.029Z" transform="translate(-146.222 -528.159)"/><path class="a" d="M83.08,849.578a2,2,0,0,0,1.877,2.106h5.818a6.536,6.536,0,0,0,5-2.422,6.536,6.536,0,0,0,5,2.422h5.756c3.8,0,6.882-3.457,6.882-7.722a1.889,1.889,0,1,0-3.754,0,3.336,3.336,0,0,1-3.128,3.51h-5.756a3.335,3.335,0,0,1-3.128-3.51V829.782c0-4.187-3.025-7.582-6.757-7.582v4.212a3.2,3.2,0,0,1,3,3.37v14.181a3.335,3.335,0,0,1-3.128,3.51H84.957A2,2,0,0,0,83.08,849.578Z" transform="translate(-75.521 -738.258)"/><path class="b" d="M282.054,825.2a3.538,3.538,0,1,0-3.131-3.515,1.891,1.891,0,1,1-3.757,0c0-4.271,3.084-7.732,6.889-7.732s6.889,3.462,6.889,7.732-3.084,7.732-6.889,7.732a2.123,2.123,0,0,1,0-4.218Z" transform="translate(-250.13 -730.849)"/><path class="b" d="M237.466,525.07a4.659,4.659,0,0,0,0-9.267,4,4,0,0,0-3.18,1.64,1.745,1.745,0,0,1-2.652.235,2.284,2.284,0,0,1-.21-2.969,7.61,7.61,0,0,1,6.042-3.118c4.37,0,7.928,3.951,7.928,8.846s-3.558,8.846-7.928,8.846a2.12,2.12,0,0,1,0-4.212Z" transform="translate(-209.96 -459.36)"/><path class="a" d="M539.4,23.156a3.808,3.808,0,0,0,0-4.957,2.9,2.9,0,0,0-4.428,0,3.807,3.807,0,0,0,0,4.957,2.285,2.285,0,0,1,0,2.974,1.741,1.741,0,0,1-2.657,0,8.377,8.377,0,0,1,0-10.905,6.382,6.382,0,0,1,9.742,0,8.377,8.377,0,0,1,0,10.905,1.741,1.741,0,0,1-2.657,0A2.284,2.284,0,0,1,539.4,23.156Z" transform="translate(-482.05 -11.643)"/><path class="a" d="M547.934,107.886a1.735,1.735,0,0,1,2.654,0,2.293,2.293,0,0,1,0,2.978,1.735,1.735,0,0,1-2.654,0A2.293,2.293,0,0,1,547.934,107.886Z" transform="translate(-497.582 -96.317)"/><path class="a" d="M150.359,826.412a2.12,2.12,0,1,1,1.876-2.106A2,2,0,0,1,150.359,826.412Z" transform="translate(-134.974 -738.258)"/><path class="a" d="M10.02,861.76a3.34,3.34,0,0,0-3.131-3.515,3.538,3.538,0,0,0,0,7.029A3.34,3.34,0,0,0,10.02,861.76Zm-3.131-7.732c3.8,0,6.889,3.462,6.889,7.732s-3.084,7.732-6.889,7.732S0,866.031,0,861.76,3.084,854.028,6.889,854.028Z" transform="translate(0 -766.837)"/><path class="b" d="M63,715.022a4.135,4.135,0,0,0-3.869,4.357v8.152a1.885,1.885,0,1,1-3.744,0v-8.152c0-4.735,3.408-8.574,7.612-8.574Z" transform="translate(-50.347 -638.236)"/><path class="a" d="M57.263,858.24a2.12,2.12,0,1,1,1.876-2.106A2,2,0,0,1,57.263,858.24Z" transform="translate(-50.347 -766.837)"/><path class="a" d="M56.674,913.053a2.12,2.12,0,1,1,1.876-2.106A2,2,0,0,1,56.674,913.053Z" transform="translate(-49.812 -816.054)"/><path class="a" d="M59.731,439.144a3.538,3.538,0,0,0-.082-7.029A2.123,2.123,0,0,1,59.6,427.9c3.81-.055,6.938,3.361,6.988,7.631s-3,7.777-6.808,7.832a2.123,2.123,0,0,1-.049-4.217Z" transform="translate(-52.49 -384.212)"/><path class="a" d="M111.184,649.009a3.536,3.536,0,0,0,0,7.025c6.852,0,12.406,6.228,12.406,13.91a1.892,1.892,0,1,1-3.76,0c0-5.354-3.871-9.7-8.647-9.7-3.807,0-6.893-3.46-6.893-7.728s3.086-7.728,6.893-7.728a2.121,2.121,0,0,1,0,4.215Z" transform="translate(-94.803 -578.964)"/><path class="a" d="M385.353,967.824a3.151,3.151,0,1,0-6.262,0,1.891,1.891,0,1,1-3.757,0c0-4.256,3.084-7.706,6.889-7.706s6.889,3.45,6.889,7.706a1.891,1.891,0,1,1-3.758,0Z" transform="translate(-341.185 -862.095)"/><path class="b" d="M412.082,649.847c0,5.351,3.864,9.688,8.631,9.688a2.12,2.12,0,0,1,0,4.212c-6.839,0-12.384-6.223-12.384-13.9a1.889,1.889,0,1,1,3.753,0Z" transform="translate(-371.178 -581.61)"/><path class="a" d="M706.858,14.24c-6.922,0-12.533,6.3-12.533,14.068a1.893,1.893,0,1,1-3.76,0c0-10.1,7.295-18.289,16.293-18.289a2.005,2.005,0,0,1,1.88,2.11A2.005,2.005,0,0,1,706.858,14.24Z" transform="translate(-627.736 -8.997)"/><path class="a" d="M932.58,27.756c0-7.141-5.157-12.931-11.52-12.931a2,2,0,0,1-1.878-2.108,2,2,0,0,1,1.878-2.108c8.437,0,15.276,7.677,15.276,17.147a1.891,1.891,0,1,1-3.757,0Z" transform="translate(-835.553 -9.526)"/><path class="a" d="M313.741,444.576c0-5.583-4.032-10.109-9.006-10.109a2.12,2.12,0,0,1,0-4.212c7.047,0,12.759,6.412,12.759,14.321a1.889,1.889,0,1,1-3.753,0Z" transform="translate(-275.304 -386.329)"/><path class="a" d="M58.922,540.248a1.889,1.889,0,1,1,1.9,2.079A2.008,2.008,0,0,1,58.922,540.248Z" transform="translate(-53.561 -483.176)"/><path class="a" d="M277.041,874.742a2.12,2.12,0,1,1,1.876-2.106A2,2,0,0,1,277.041,874.742Z" transform="translate(-250.13 -781.654)"/><path class="a" d="M377.209,1019.142a2.12,2.12,0,1,1,1.876-2.106A2,2,0,0,1,377.209,1019.142Z" transform="translate(-341.185 -911.312)"/><path class="a" d="M84.367,1073.952a2.12,2.12,0,1,1,1.876-2.106A2,2,0,0,1,84.367,1073.952Z" transform="translate(-74.986 -960.526)"/><path class="a" d="M277.041,929.556a2.12,2.12,0,1,1,1.876-2.106A2,2,0,0,1,277.041,929.556Z" transform="translate(-250.13 -830.872)"/><path class="a" d="M277.041,984.959a2.12,2.12,0,1,1,1.876-2.105A2,2,0,0,1,277.041,984.959Z" transform="translate(-250.13 -880.619)"/><path class="a" d="M432.6,1026.212a2.12,2.12,0,1,1,1.876-2.106A2,2,0,0,1,432.6,1026.212Z" transform="translate(-391.531 -917.66)"/><path class="a" d="M432.6,1081.031a2.12,2.12,0,1,1,1.876-2.105A2,2,0,0,1,432.6,1081.031Z" transform="translate(-391.531 -966.883)"/><path class="a" d="M410.205,651.953a2.12,2.12,0,1,1,1.876-2.106A2,2,0,0,1,410.205,651.953Z" transform="translate(-371.178 -581.61)"/><path class="a" d="M162.733,649.006a2.12,2.12,0,1,1,1.876-2.106A2,2,0,0,1,162.733,649.006Z" transform="translate(-146.222 -578.964)"/><path class="a" d="M477.86,593.587a3.152,3.152,0,1,0-3.131,3.515A3.34,3.34,0,0,0,477.86,593.587Zm-3.131-7.732c3.8,0,6.889,3.462,6.889,7.732s-3.084,7.732-6.889,7.732-6.889-3.462-6.889-7.732S470.924,585.855,474.729,585.855Z" transform="translate(-425.275 -526.043)"/><path class="a" d="M635.768,230.2a2,2,0,0,0,1.879,2.106,3.337,3.337,0,0,1,3.132,3.51v14.04a3.337,3.337,0,0,1-3.132,3.51,2.12,2.12,0,0,0,0,4.212,6.548,6.548,0,0,0,5.011-2.422,6.548,6.548,0,0,0,5.011,2.422h5.762c3.805,0,6.89-3.457,6.89-7.722a1.891,1.891,0,1,0-3.758,0,3.337,3.337,0,0,1-3.132,3.51h-5.762a3.337,3.337,0,0,1-3.132-3.51v-14.04c0-4.265-3.085-7.722-6.89-7.722A2,2,0,0,0,635.768,230.2Z" transform="translate(-577.925 -204.807)"/><path class="b" d="M535.611,255.486a2,2,0,0,0-1.879-2.107,3.338,3.338,0,0,1-3.131-3.512V235.82a3.338,3.338,0,0,1,3.131-3.512,2.121,2.121,0,0,0,0-4.214c-3.8,0-6.888,3.459-6.888,7.726v14.047q0,.259.015.514a8.513,8.513,0,0,0-5.4,8.195v8.147a1.891,1.891,0,1,0,3.757,0v-8.147a4.3,4.3,0,0,1,2.911-4.217,6.688,6.688,0,0,0,5.605,3.234A2,2,0,0,0,535.611,255.486Z" transform="translate(-474.016 -204.807)"/><path class="a" d="M587.27,479.856a3.538,3.538,0,1,0,3.131,3.515,1.891,1.891,0,1,1,3.758,0c0,4.27-3.084,7.732-6.889,7.732s-6.889-3.462-6.889-7.732,3.084-7.732,6.889-7.732a2.123,2.123,0,0,1,0,4.217Z" transform="translate(-527.577 -427.079)"/><path class="b" d="M1115.617,587.693a3.152,3.152,0,1,1,3.131,3.515,2.123,2.123,0,0,0,0,4.218c3.8,0,6.889-3.462,6.889-7.732s-3.084-7.732-6.889-7.732-6.888,3.462-6.888,7.732a1.891,1.891,0,1,0,3.758,0Z" transform="translate(-1010.701 -520.75)"/><path class="a" d="M637.644,479.851a2.12,2.12,0,1,1,1.876-2.106A2,2,0,0,1,637.644,479.851Z" transform="translate(-577.925 -427.079)"/><path class="a" d="M637.644,232.306a2.12,2.12,0,1,1,1.876-2.106A2,2,0,0,1,637.644,232.306Z" transform="translate(-577.925 -204.807)"/><path class="a" d="M523.335,590.067a2.12,2.12,0,1,1,1.876-2.106A2,2,0,0,1,523.335,590.067Z" transform="translate(-474.016 -526.043)"/><path class="a" d="M524.514,644.88a2.12,2.12,0,1,1,1.876-2.106A2,2,0,0,1,524.514,644.88Z" transform="translate(-475.087 -575.26)"/><path class="a" d="M1146.416,147.8c0,4.268-3.084,7.727-6.89,7.727H1127c-3.8,0-6.889-3.46-6.889-7.727s3.084-7.727,6.889-7.727h4.009v-4.426c0-4.268,3.084-7.727,6.89-7.727h12.526a3.338,3.338,0,0,0,3.131-3.512v-6.463a3.338,3.338,0,0,0-3.131-3.512,2.121,2.121,0,0,1,0-4.215c3.806,0,6.889,3.46,6.889,7.727v6.463a8.17,8.17,0,0,1-2.161,5.62,8.169,8.169,0,0,1,2.161,5.62v6.322a1.891,1.891,0,1,1-3.758,0v-6.322a3.338,3.338,0,0,0-3.131-3.512H1137.9a3.339,3.339,0,0,0-3.133,3.512v4.426h4.76C1143.331,140.072,1146.416,143.531,1146.416,147.8ZM1127,144.287a3.536,3.536,0,0,0,0,7.025h12.526a3.535,3.535,0,0,0,0-7.025Z" transform="translate(-1018.2 -98.964)"/><path class="a" d="M1069.015,164.606a4.009,4.009,0,0,0,5.416-2.528,4.852,4.852,0,0,0-2.3-6.047,3.762,3.762,0,0,0-3.494.174,1.787,1.787,0,0,1-2.533-.9,2.233,2.233,0,0,1,.806-2.836,7.161,7.161,0,0,1,6.641-.334c4.043,1.845,6.005,7,4.356,11.533s-6.27,6.683-10.315,4.837a2.2,2.2,0,0,1-1.031-2.743A1.816,1.816,0,0,1,1069.015,164.606Z" transform="translate(-968.921 -136.009)"/><path class="a" d="M1371.332,464.189c0,5.35,3.864,9.688,8.631,9.688a2.12,2.12,0,0,1,0,4.212c-6.84,0-12.384-6.223-12.384-13.9a1.889,1.889,0,1,1,3.752,0Z" transform="translate(-1243.155 -414.907)"/><path class="a" d="M1369.456,465.116a2.12,2.12,0,1,1,1.876-2.106A2,2,0,0,1,1369.456,465.116Z" transform="translate(-1243.155 -413.848)"/><path class="a" d="M535.6,331.871a3.151,3.151,0,1,0-6.262,0,1.891,1.891,0,1,1-3.757,0c0-4.256,3.084-7.706,6.888-7.706s6.889,3.45,6.889,7.706a1.891,1.891,0,1,1-3.757,0Z" transform="translate(-477.765 -291.07)"/><path class="a" d="M874.4,374.9a3.151,3.151,0,1,0-6.262,0,1.891,1.891,0,1,1-3.757,0c0-4.256,3.084-7.706,6.889-7.706s6.888,3.45,6.888,7.706a1.89,1.89,0,1,1-3.757,0Z" transform="translate(-785.742 -329.703)"/><path class="b" d="M436.72,1053.243c4.767,0,8.631-4.337,8.631-9.687a1.889,1.889,0,1,1,3.753,0c0,7.677-5.544,13.9-12.383,13.9a2.12,2.12,0,0,1,0-4.213Z" transform="translate(-395.281 -935.124)"/><path class="a" d="M645.9,552.057c5.533,0,10.018-5.035,10.018-11.245a1.891,1.891,0,1,1,3.757,0c0,8.539-6.167,15.462-13.775,15.462a2.122,2.122,0,0,1,0-4.217Z" transform="translate(-585.423 -483.705)"/><path class="a" d="M637.644,383.19a2.12,2.12,0,1,1,1.876-2.106A2,2,0,0,1,637.644,383.19Z" transform="translate(-577.925 -340.287)"/><path class="a" d="M782,252.935a2.12,2.12,0,1,1,1.876-2.106A2,2,0,0,1,782,252.935Z" transform="translate(-709.149 -223.33)"/><path class="a" d="M1114.21,693.462a1.889,1.889,0,1,0,1.877-2.106A2,2,0,0,0,1114.21,693.462Z" transform="translate(-1012.837 -620.773)"/><path class="a" d="M1059.42,693.462a1.889,1.889,0,1,0,1.876-2.106A2,2,0,0,0,1059.42,693.462Z" transform="translate(-963.032 -620.773)"/><path class="a" d="M1395.089,938.915c-3.806,0-6.889-3.457-6.889-7.722v-14.04c0-4.265,3.083-7.722,6.889-7.722s6.888,3.457,6.888,7.722v14.04C1401.977,935.458,1398.894,938.915,1395.089,938.915Zm3.131-7.722v-14.04a3.152,3.152,0,1,0-6.262,0v14.04a3.152,3.152,0,1,0,6.262,0Z" transform="translate(-1261.899 -816.583)"/><path class="b" d="M1447.353,825.277c0-4.259,3.089-7.711,6.9-7.711a2.116,2.116,0,0,0,0-4.206c-5.888,0-10.662,5.335-10.662,11.917a1.893,1.893,0,1,0,3.763,0Z" transform="translate(-1312.25 -730.321)"/><path class="a" d="M1447.342,911.536a1.889,1.889,0,1,0-1.876,2.106A2,2,0,0,0,1447.342,911.536Z" transform="translate(-1312.25 -816.583)"/><path class="a" d="M1210.668,1050.977a3.538,3.538,0,1,0,3.132,3.515A3.34,3.34,0,0,0,1210.668,1050.977Zm-6.888,3.515c0-4.271,3.083-7.733,6.888-7.733s6.888,3.462,6.888,7.733-3.083,7.731-6.888,7.731S1203.78,1058.762,1203.78,1054.492Z" transform="translate(-1094.258 -939.892)"/><path class="b" d="M848,989a2,2,0,0,1,1.877,2.112A3.341,3.341,0,0,0,853,994.628h12.514a3.341,3.341,0,0,0,3.129-3.519,1.89,1.89,0,1,1,3.755,0,8.065,8.065,0,0,1-2.87,6.291,3.924,3.924,0,0,0,3.747,3.141h7.259a2.126,2.126,0,0,1,0,4.223h-7.259a7.749,7.749,0,0,1-7.288-5.93c-.156.011-.313.017-.472.017H853c-3.8,0-6.883-3.466-6.883-7.742A2,2,0,0,1,848,989Z" transform="translate(-769.138 -888.027)"/><path class="a" d="M628.515,742.633c3.8,0,6.889,3.457,6.889,7.722V764.4c0,4.265-3.084,7.722-6.889,7.722s-6.889-3.457-6.889-7.722V750.355C621.626,746.09,624.71,742.633,628.515,742.633Zm3.131,7.722a3.152,3.152,0,1,0-6.263,0V764.4a3.152,3.152,0,1,0,6.263,0Z" transform="translate(-565.069 -666.815)"/><path class="a" d="M848,787.874a2,2,0,0,0,1.876-2.109A3.339,3.339,0,0,1,853,782.249h12.509a3.339,3.339,0,0,1,3.127,3.516,1.889,1.889,0,1,0,3.753,0,8.19,8.19,0,0,0-2.158-5.625,8.191,8.191,0,0,0,2.158-5.624v-6.468c0-4.271-3.081-7.734-6.88-7.734a2.124,2.124,0,0,0,0,4.218,3.338,3.338,0,0,1,3.127,3.515v6.468a3.338,3.338,0,0,1-3.127,3.515H853c-3.8,0-6.88,3.462-6.88,7.734A2,2,0,0,0,848,787.874Z" transform="translate(-769.138 -682.69)"/><path class="a" d="M1097.347,941.327a3.152,3.152,0,1,0,3.132-3.515,2.123,2.123,0,0,1,0-4.218c3.8,0,6.888,3.462,6.888,7.732s-3.084,7.732-6.888,7.732-6.889-3.462-6.889-7.732a1.891,1.891,0,1,1,3.758,0Z" transform="translate(-994.093 -838.28)"/><path class="a" d="M859.085,772.172a3.152,3.152,0,1,0-3.131,3.515,2.123,2.123,0,0,1,0,4.218c-3.8,0-6.889-3.462-6.889-7.732s3.084-7.732,6.889-7.732,6.888,3.462,6.888,7.732a1.891,1.891,0,1,1-3.757,0Z" transform="translate(-771.815 -686.395)"/><path class="a" d="M557.036,873.536a4.16,4.16,0,1,0-8.256,0,4.934,4.934,0,0,0,1.461,3.57,2.3,2.3,0,0,1,.209,2.977,1.736,1.736,0,0,1-2.645.235,9.39,9.39,0,0,1-2.778-6.782c0-4.905,3.52-8.9,7.88-8.9s7.88,3.994,7.88,8.9a1.889,1.889,0,1,1-3.753,0Z" transform="translate(-495.44 -776.363)"/><path class="a" d="M1097.343,990.515a1.889,1.889,0,1,1-1.877-2.107A2,2,0,0,1,1097.343,990.515Z" transform="translate(-994.093 -887.498)"/><path class="a" d="M849.871,991.1A1.889,1.889,0,1,1,848,989,2,2,0,0,1,849.871,991.1Z" transform="translate(-769.138 -888.027)"/><path class="a" d="M1207.532,1104.266a1.889,1.889,0,1,1-1.876-2.106A2,2,0,0,1,1207.532,1104.266Z" transform="translate(-1094.258 -989.636)"/><path class="a" d="M1262.913,1103.676a1.889,1.889,0,1,1-1.877-2.106A2,2,0,0,1,1262.913,1103.676Z" transform="translate(-1144.599 -989.106)"/><path class="a" d="M949.616,993.216a3.54,3.54,0,0,0,0,7.029,2.124,2.124,0,0,1,0,4.218c-3.792,0-6.865-3.462-6.865-7.733S945.825,989,949.616,989a2.124,2.124,0,0,1,0,4.218Z" transform="translate(-856.978 -888.027)"/><path class="a" d="M979.178,624.251c-2.387,0-4.386,2.223-4.386,5.054s2,5.055,4.386,5.055a2.12,2.12,0,0,1,0,4.212c-4.534,0-8.145-4.188-8.145-9.267s3.612-9.267,8.145-9.267a2.12,2.12,0,0,1,0,4.212Z" transform="translate(-882.687 -556.737)"/><path class="a" d="M700.6,878.876c-4.77,0-8.637,4.345-8.637,9.706,0,4.273-3.082,7.737-6.885,7.737s-6.885-3.464-6.885-7.737a1.89,1.89,0,1,1,3.755,0,3.151,3.151,0,1,0,6.259,0c0-7.691,5.548-13.926,12.393-13.926a2.124,2.124,0,0,1,0,4.22Z" transform="translate(-616.488 -785.359)"/><path class="b" d="M683.014,583.338c7.875,0,14.26-7.166,14.26-16.006a1.889,1.889,0,1,1,3.753,0c0,11.166-8.064,20.218-18.012,20.218a2.12,2.12,0,0,1,0-4.212Z" transform="translate(-619.167 -507.52)"/><path class="b" d="M1150.757,13.061c-6.714,0-12.158,6.11-12.158,13.647a1.892,1.892,0,1,1-3.759,0c0-9.868,7.126-17.867,15.917-17.867a2.005,2.005,0,0,1,1.881,2.11A2.005,2.005,0,0,1,1150.757,13.061Z" transform="translate(-1031.59 -7.938)"/><path class="a" d="M1168.917,872.053c0-5.351-3.864-9.688-8.63-9.688a2.12,2.12,0,0,1,0-4.212c6.839,0,12.383,6.223,12.383,13.9a1.889,1.889,0,1,1-3.753,0Z" transform="translate(-1053.016 -770.541)"/><path class="a" d="M4.931,1043.556c0,5.351,3.864,9.687,8.631,9.687a2.12,2.12,0,0,1,0,4.213c-6.839,0-12.383-6.223-12.383-13.9a2,2,0,0,1,1.876-2.106A2,2,0,0,1,4.931,1043.556Z" transform="translate(-1.071 -935.124)"/><path class="a" d="M491.473,815.8c-3.173,0-5.745,2.887-5.745,6.448a1.886,1.886,0,1,1-3.747,0c0-5.884,4.25-10.654,9.492-10.654a2.117,2.117,0,0,1,0,4.206Z" transform="translate(-438.129 -728.732)"/><path class="a" d="M1001.3,991.1A1.889,1.889,0,1,1,999.424,989,2,2,0,0,1,1001.3,991.1Z" transform="translate(-906.789 -888.027)"/><path class="a" d="M908.2,876.762a1.889,1.889,0,1,1-1.876-2.106A2,2,0,0,1,908.2,876.762Z" transform="translate(-822.163 -785.359)"/><path class="a" d="M907.614,707.607a1.889,1.889,0,1,1-1.876-2.106A2,2,0,0,1,907.614,707.607Z" transform="translate(-821.627 -633.473)"/><path class="a" d="M907.614,652.2a1.889,1.889,0,1,1-1.876-2.106A2,2,0,0,1,907.614,652.2Z" transform="translate(-821.627 -583.727)"/><path class="a" d="M868.137,424.7a1.889,1.889,0,1,1-1.876-2.106A2,2,0,0,1,868.137,424.7Z" transform="translate(-785.742 -379.449)"/><path class="a" d="M1043.723,762.42a1.889,1.889,0,1,1-1.877-2.106A2,2,0,0,1,1043.723,762.42Z" transform="translate(-945.351 -682.69)"/><path class="a" d="M364.545,24.214a3.34,3.34,0,0,1-3.131-3.515,3.152,3.152,0,1,1,6.262,0A3.34,3.34,0,0,1,364.545,24.214ZM357.656,20.7c0,4.27,3.084,7.732,6.889,7.732s6.889-3.462,6.889-7.732-3.084-7.732-6.889-7.732S357.656,16.428,357.656,20.7Z" transform="translate(-325.116 -11.643)"/><path class="a" d="M1.876,180.943a2,2,0,0,1,1.876,2.108,3.338,3.338,0,0,0,3.127,3.514H19.388a3.338,3.338,0,0,0,3.127-3.514,2,2,0,0,1,1.876-2.108,2,2,0,0,1,1.876,2.108c0,4.27-3.08,7.731-6.88,7.731H7.13A3.338,3.338,0,0,0,4,194.3v14.056a3.338,3.338,0,0,0,3.127,3.514,2.123,2.123,0,0,1,0,4.217c-3.8,0-6.88-3.461-6.88-7.731V194.3a8.208,8.208,0,0,1,2.036-5.49A8.159,8.159,0,0,1,0,183.051,2,2,0,0,1,1.876,180.943Z" transform="translate(0 -162.47)"/><path class="b" d="M19.882,74.286a7.783,7.783,0,0,1,7.27-5.916h7.263a2.114,2.114,0,0,1,0,4.2H27.152a3.976,3.976,0,0,0-3.735,3.154,8.017,8.017,0,0,1,2.851,6.248,1.888,1.888,0,1,1-3.753,0,3.331,3.331,0,0,0-3.127-3.5H6.88a3.331,3.331,0,0,0-3.127,3.5,2,2,0,0,1-1.876,2.1A2,2,0,0,1,0,81.973c0-4.256,3.08-7.706,6.88-7.706H19.388q.249,0,.493.019Z" transform="translate(0 -61.389)"/><path class="a" d="M251.229,133.862a3.152,3.152,0,1,1,3.131,3.515,2.123,2.123,0,0,0,0,4.218c3.8,0,6.889-3.462,6.889-7.732s-3.084-7.732-6.889-7.732-6.889,3.462-6.889,7.732a1.891,1.891,0,1,0,3.757,0Z" transform="translate(-224.957 -113.253)"/><path class="a" d="M251.225,183.638a1.889,1.889,0,1,0-1.876,2.106A2,2,0,0,0,251.225,183.638Z" transform="translate(-224.957 -162.999)"/><path class="a" d="M3.753,183.049a2,2,0,0,0-1.876-2.106,2.12,2.12,0,0,0,0,4.212A2,2,0,0,0,3.753,183.049Z" transform="translate(0 -162.47)"/><path class="a" d="M230.6,308.589a1.889,1.889,0,1,0-1.876,2.106A2,2,0,0,0,230.6,308.589Z" transform="translate(-206.21 -275.193)"/><path class="a" d="M230.6,363.4a1.889,1.889,0,1,0-1.876,2.106A2,2,0,0,0,230.6,363.4Z" transform="translate(-206.21 -324.411)"/><path class="a" d="M409.724,386.978a1.889,1.889,0,1,0-1.876,2.106A2,2,0,0,0,409.724,386.978Z" transform="translate(-369.036 -345.579)"/><path class="a" d="M466.29,384.031a1.889,1.889,0,1,0-1.876,2.106A2,2,0,0,0,466.29,384.031Z" transform="translate(-420.454 -342.933)"/><path class="a" d="M466.29,441.792a1.889,1.889,0,1,0-1.876,2.106A2,2,0,0,0,466.29,441.792Z" transform="translate(-420.454 -394.797)"/><path class="a" d="M185.233,1160.256a1.889,1.889,0,1,0-1.876,2.106A2,2,0,0,0,185.233,1160.256Z" transform="translate(-164.969 -1039.91)"/><path class="a" d="M247.1,1160.256a1.889,1.889,0,1,0-1.876,2.106A2,2,0,0,0,247.1,1160.256Z" transform="translate(-221.208 -1039.91)"/><path class="a" d="M433.294,1159.076a1.889,1.889,0,1,0-1.876,2.106A2,2,0,0,0,433.294,1159.076Z" transform="translate(-390.461 -1038.85)"/><path class="a" d="M361.409,70.475a1.889,1.889,0,1,0-1.876,2.106A2,2,0,0,0,361.409,70.475Z" transform="translate(-325.116 -61.389)"/><path class="a" d="M416.8,70.475a1.889,1.889,0,1,0-1.876,2.106A2,2,0,0,0,416.8,70.475Z" transform="translate(-375.464 -61.389)"/><path class="a" d="M130.6,81.974a3.539,3.539,0,0,1,0-7.029,2.124,2.124,0,0,0,0-4.218c-3.792,0-6.866,3.462-6.866,7.732s3.074,7.732,6.866,7.732a2.124,2.124,0,0,0,0-4.218Z" transform="translate(-112.478 -63.506)"/><path class="a" d="M77.886,351.953c4.767,0,8.631,4.337,8.631,9.688a1.889,1.889,0,1,0,3.753,0c0-7.677-5.544-13.9-12.384-13.9a2.12,2.12,0,0,0,0,4.212Z" transform="translate(-69.094 -312.239)"/><path class="a" d="M62.674,486A1.889,1.889,0,1,0,60.8,488.1,2,2,0,0,0,62.674,486Z" transform="translate(-53.561 -434.488)"/><path class="a" d="M963,876.762a1.889,1.889,0,1,1-1.876-2.106A2,2,0,0,1,963,876.762Z" transform="translate(-871.975 -785.359)"/><path class="a" d="M1017.8,876.762a1.889,1.889,0,1,1-1.876-2.106A2,2,0,0,1,1017.8,876.762Z" transform="translate(-921.79 -785.359)"/><path class="a" d="M680.766,744.739a1.889,1.889,0,1,1-1.876-2.106A2,2,0,0,1,680.766,744.739Z" transform="translate(-615.417 -666.815)"/><path class="a" d="M681.943,992.283a1.889,1.889,0,1,1-1.876-2.107A2,2,0,0,1,681.943,992.283Z" transform="translate(-616.488 -889.086)"/><path class="a" d="M873.182,159.222a4.4,4.4,0,0,0,0,8.733c7.705,0,13.932,7.041,13.932,15.7a1.891,1.891,0,1,1-3.759,0c0-6.356-4.566-11.486-10.173-11.486-4.219,0-7.619-3.853-7.619-8.578s3.4-8.578,7.619-8.578a2.12,2.12,0,0,1,0,4.212Z" transform="translate(-786.813 -139.184)"/><path class="a" d="M940.618,417.042c0,6.394-4.554,11.539-10.132,11.539a2.125,2.125,0,0,0,0,4.222c7.687,0,13.885-7.077,13.885-15.761a1.889,1.889,0,1,0-3.753,0Z" transform="translate(-844.123 -372.569)"/><path class="a" d="M1062.467,419.143a2.12,2.12,0,1,1,1.876-2.106A2,2,0,0,1,1062.467,419.143Z" transform="translate(-964.095 -372.569)"/><path class="a" d="M782,310.609a2,2,0,0,1,1.876,2.109v9.14a1.889,1.889,0,1,1-3.753,0v-9.14A2,2,0,0,1,782,310.609Z" transform="translate(-709.149 -278.898)"/><path class="a" d="M317.383,175.978c0,7.84-5.662,14.195-12.646,14.195a2.122,2.122,0,0,0,0,4.216c9.059,0,16.4-8.243,16.4-18.411a1.891,1.891,0,1,0-3.756,0Z" transform="translate(-275.304 -156.119)"/><path class="b" d="M945.338,220.181a2,2,0,0,1-1.88,2.106H927.544a2.12,2.12,0,0,1,0-4.212h15.915A2,2,0,0,1,945.338,220.181Z" transform="translate(-841.445 -195.811)"/><path class="a" d="M466.29,175.976a1.889,1.889,0,1,0-1.876,2.106A2,2,0,0,0,466.29,175.976Z" transform="translate(-420.454 -156.119)"/><path class="a" d="M1068.515,162.731a1.735,1.735,0,0,1-2.653,0,2.293,2.293,0,0,1,0-2.978,1.735,1.735,0,0,1,2.653,0A2.291,2.291,0,0,1,1068.515,162.731Z" transform="translate(-968.388 -142.889)"/><path class="a" d="M928.277,100.845a1.735,1.735,0,0,1-2.653,0,2.292,2.292,0,0,1,0-2.978,1.735,1.735,0,0,1,2.653,0A2.293,2.293,0,0,1,928.277,100.845Z" transform="translate(-840.909 -87.321)"/><path class="a" d="M0,622.145a2,2,0,0,1,1.876-2.106h6a2.12,2.12,0,0,1,0,4.212h-6A2,2,0,0,1,0,622.145Z" transform="translate(0 -556.737)"/><path class="a" d="M637.644,1105.319a2,2,0,0,1-1.876-2.1v-6.026a1.888,1.888,0,1,1,3.753,0v6.026A2,2,0,0,1,637.644,1105.319Z" transform="translate(-577.925 -983.288)"/><path class="a" d="M755.379,1160.256a2,2,0,0,1,1.878-2.106h14.9a2.12,2.12,0,0,1,0,4.212h-14.9A2,2,0,0,1,755.379,1160.256Z" transform="translate(-686.653 -1039.91)"/><path class="a" d="M0,12.715a2,2,0,0,1,1.876-2.106h8.631a2,2,0,0,1,1.876,2.106,2,2,0,0,1-1.876,2.106H1.876A2,2,0,0,1,0,12.715Z" transform="translate(0 -9.526)"/><path class="a" d="M926.361,1162.362a2.12,2.12,0,1,1,1.876-2.106A2,2,0,0,1,926.361,1162.362Z" transform="translate(-840.374 -1039.91)"/><path class="a" d="M790.207,104.4c-3.173,0-5.745,2.887-5.745,6.448a1.886,1.886,0,1,1-3.747,0c0-5.884,4.25-10.654,9.491-10.654a2.117,2.117,0,0,1,0,4.206Z" transform="translate(-709.685 -89.967)"/><path class="a" d="M781.265,184.507a1.735,1.735,0,0,1,2.653,0,2.292,2.292,0,0,1,0,2.978,1.735,1.735,0,0,1-2.653,0A2.292,2.292,0,0,1,781.265,184.507Z" transform="translate(-709.685 -165.116)"/><path class="a" d="M1176.777,656.253c6.632,0,12.008-6.035,12.008-13.479a1.889,1.889,0,1,1,3.753,0c0,9.77-7.057,17.691-15.761,17.691a2.12,2.12,0,0,1,0-4.212Z" transform="translate(-1068.005 -575.26)"/><path class="a" d="M1330.715,644.263a1.736,1.736,0,0,1-2.654,0,2.294,2.294,0,0,1,0-2.978,1.736,1.736,0,0,1,2.654,0A2.293,2.293,0,0,1,1330.715,644.263Z" transform="translate(-1206.733 -575.26)"/><path class="a" d="M1389.048,644.263a1.735,1.735,0,0,1-2.653,0,2.291,2.291,0,0,1,0-2.978,1.735,1.735,0,0,1,2.653,0A2.293,2.293,0,0,1,1389.048,644.263Z" transform="translate(-1259.758 -575.26)"/><path class="a" d="M1358.756,716.2c-9,0-16.288,8.185-16.288,18.282a1.892,1.892,0,1,1-3.758,0c0-12.427,8.974-22.5,20.046-22.5a2.124,2.124,0,0,1,0,4.219Z" transform="translate(-1216.912 -639.294)"/><path class="a" d="M1104.413,220.17a1.889,1.889,0,1,1-1.886-2.1A2,2,0,0,1,1104.413,220.17Z" transform="translate(-1000.52 -195.811)"/><path class="a" d="M1292.963,10.936a1.889,1.889,0,1,1-3.753.021,1.889,1.889,0,1,1,3.753-.021Z" transform="translate(-1171.915 -7.938)"/><path class="a" d="M1104.413,12.7a1.889,1.889,0,1,1-3.753.021,1.889,1.889,0,1,1,3.753-.021Z" transform="translate(-1000.52 -9.526)"/><path class="a" d="M1104.413,67.518a1.889,1.889,0,1,1-1.886-2.1A2,2,0,0,1,1104.413,67.518Z" transform="translate(-1000.52 -58.743)"/><path class="b" d="M1455.266,644.88h-7.449a2.12,2.12,0,0,1,0-4.212h7.449a2.12,2.12,0,0,1,0,4.212Z" transform="translate(-1314.386 -575.26)"/><path class="a" d="M1542.2,714.09a1.889,1.889,0,1,1-1.877-2.106A2,2,0,0,1,1542.2,714.09Z" transform="translate(-1398.479 -639.294)"/><path class="a" d="M1243.85,115.591a3.152,3.152,0,1,0-3.132,3.515,2.123,2.123,0,0,1,0,4.218c-3.8,0-6.888-3.462-6.888-7.732s3.083-7.732,6.888-7.732,6.888,3.462,6.888,7.732a1.891,1.891,0,1,1-3.757,0Z" transform="translate(-1121.574 -96.847)"/><path class="b" d="M1381.516,4.218a3.335,3.335,0,0,0-3.121,3.515,3.335,3.335,0,0,0,3.121,3.515,2,2,0,0,1,1.872,2.109,2,2,0,0,1-1.872,2.109c-3.792,0-6.866-3.462-6.866-7.732S1377.723,0,1381.516,0a2,2,0,0,1,1.872,2.109A2,2,0,0,1,1381.516,4.218Z" transform="translate(-1249.582 0)"/><path class="a" d="M1294.143,220.181a1.889,1.889,0,1,1-1.877-2.106A2,2,0,0,1,1294.143,220.181Z" transform="translate(-1172.988 -195.811)"/><path class="a" d="M1434.373,112.322a1.889,1.889,0,1,1-1.876-2.106A2,2,0,0,1,1434.373,112.322Z" transform="translate(-1300.459 -98.964)"/><path class="a" d="M1349.532,220.181a1.889,1.889,0,1,1-1.876-2.106A2,2,0,0,1,1349.532,220.181Z" transform="translate(-1223.339 -195.811)"/><path class="a" d="M1404.323,220.181a1.889,1.889,0,1,1-1.876-2.106A2,2,0,0,1,1404.323,220.181Z" transform="translate(-1273.143 -195.811)"/><path class="a" d="M1436.143,56.33a1.889,1.889,0,1,1-1.877-2.106A2,2,0,0,1,1436.143,56.33Z" transform="translate(-1302.069 -48.688)"/><path class="a" d="M1490.942,56.33a1.889,1.889,0,1,1-1.876-2.106A2,2,0,0,1,1490.942,56.33Z" transform="translate(-1351.883 -48.688)"/><path class="a" d="M1546.332,56.33a1.889,1.889,0,1,1-1.876-2.106A2,2,0,0,1,1546.332,56.33Z" transform="translate(-1402.233 -48.688)"/><path class="a" d="M1489.656,405.587a2.12,2.12,0,1,1,1.876-2.106A2,2,0,0,1,1489.656,405.587Z" transform="translate(-1352.419 -360.397)"/></g></g></g></svg>