<svg xmlns="http://www.w3.org/2000/svg" width="140.787" height="22.601" viewBox="0 0 140.787 22.601"><defs><style>.a{fill:#29abe2;}.b{fill:#666;}</style></defs><g transform="translate(-757.252 -880.59)"><g transform="translate(785.743 884.056)"><path class="a" d="M1068.325,921.093v3.095H1061.4v3.059h6.664v2.846H1061.4v3.059h6.921v3.095h-10.012V921.093Z" transform="translate(-1058.313 -920.726)"/><path class="a" d="M1213.011,921.063l5.522,15.156h-3.277l-1.185-3.252h-5.4l-1.185,3.252h-3.277l5.522-15.156Zm-3.21,8.81h3.144l-1.572-4.314Z" transform="translate(-1190.404 -920.699)"/><path class="a" d="M1402.635,921.063v2.678l-7.512,9.429h7.512v3.049h-11.707v-2.678l7.512-9.43h-7.375v-3.049Z" transform="translate(-1359.45 -920.699)"/><path class="a" d="M1557.848,921.063V936.22h-3.092V921.063Z" transform="translate(-1507.775 -920.699)"/><path class="b" d="M1638.1,919.149l-1.791,2.653a6.038,6.038,0,0,0-3.689-1.307,4.676,4.676,0,1,0,0,9.326,6.037,6.037,0,0,0,3.689-1.307l1.791,2.653a8.569,8.569,0,0,1-5.486,1.936,7.952,7.952,0,1,1,0-15.889A8.571,8.571,0,0,1,1638.1,919.149Z" transform="translate(-1570.748 -917.213)"/><path class="b" d="M1811,921.063a5.857,5.857,0,0,1,5.713,5.952,6,6,0,0,1-3.427,5.453l3.809,3.751h-4.1l-3.3-3.252h-1.167v3.252h-3.073V921.063Zm-2.477,8.831H1811a2.89,2.89,0,0,0,0-5.758h-2.477Z" transform="translate(-1734.745 -920.699)"/><path class="b" d="M1974.043,921.093v3.095h-6.921v3.059h6.664v2.846h-6.664v3.059h6.921v3.095h-10.012V921.093Z" transform="translate(-1878.316 -920.726)"/><path class="b" d="M2114.641,921.093a7.582,7.582,0,1,1,0,15.154h-4.7V921.093Zm-1.611,12.312h1.61a4.736,4.736,0,1,0,0-9.471h-1.61Z" transform="translate(-2010.213 -920.726)"/></g><g transform="translate(757.252 880.59)"><path class="a" d="M779.8,893.158a14.3,14.3,0,0,0-.121-3.175,11.31,11.31,0,0,0-22.407.87q-.051,1.111,0,2.223a11.317,11.317,0,0,0,20.655,5.109,8.239,8.239,0,0,0,1.218-2.535c-.916.009-1.833.007-2.751,0a8.831,8.831,0,0,1-6.683,4.868,18.7,18.7,0,0,1-2.5-.015,8.7,8.7,0,1,1,5.548-16.2,8.819,8.819,0,0,1,4.4,6.321h-6.824a.819.819,0,0,1-.152-.045,2.116,2.116,0,1,0,.036,2.6c.6,0,1.192-.006,1.788-.007h4.542C777.639,893.169,778.722,893.167,779.8,893.158Z" transform="translate(-757.252 -880.59)"/><path class="b" d="M808.888,926.108c.017.013.035.025.052.036h3.674a7.332,7.332,0,0,0-5.91-3.381,7.108,7.108,0,0,0-5.027,1.7,7.183,7.183,0,0,0-2.6,5.6,7.341,7.341,0,0,0,13.636,3.762c-1.154.018-2.31-.031-3.463.019a6.378,6.378,0,0,1-1.87.821,4.941,4.941,0,0,1-2.923-.324,4.8,4.8,0,0,1-2.434-2.575,4.687,4.687,0,0,1,6.867-5.66Z" transform="translate(-795.113 -918.761)"/></g></g></svg>