<svg xmlns="http://www.w3.org/2000/svg" width="48" height="48" viewBox="0 0 48 48"><defs><style>.a{fill:#eff2f6;}.b{fill:#200e32;}</style></defs><g transform="translate(-477 -408)"><g transform="translate(477 408)"><circle class="a" cx="24" cy="24" r="24"/></g><g transform="translate(489 422)"><path class="b" d="M3.833,12.379a2.279,2.279,0,0,1,1.674.44c.482.281,1.4,1.024,1.923.834a11.932,11.932,0,0,0,6.313-6.16c.193-.536-.547-1.458-.825-1.946a2.335,2.335,0,0,1-.436-1.685A13.7,13.7,0,0,1,14.811.615,1.912,1.912,0,0,1,15.979,0c1.5-.064,3.178,1.939,3.472,2.418.737,1.022.733,2.382-.012,4.03-1.8,4.428-8.586,11.112-13.031,12.974A5.371,5.371,0,0,1,4.163,20a2.919,2.919,0,0,1-1.751-.549C2.032,19.232-.054,17.472,0,15.93a1.941,1.941,0,0,1,.608-1.166,13.8,13.8,0,0,1,3.224-2.385" transform="translate(0 0)"/></g></g></svg>